<svg width="903" height="903" xmlns="http://www.w3.org/2000/svg" xmlns:xlink="http://www.w3.org/1999/xlink" xml:space="preserve" overflow="hidden"><g transform="translate(-770 -650)"><path d="M816 1101.5C816 877.549 997.549 696 1221.5 696 1445.45 696 1627 877.549 1627 1101.5 1627 1325.45 1445.45 1507 1221.5 1507 997.549 1507 816 1325.45 816 1101.5Z" stroke="#000000" stroke-width="91.6667" stroke-miterlimit="8" fill="none" fill-rule="evenodd"/><path d="M1149 943C1149 903.236 1181.24 871 1221 871 1260.76 871 1293 903.236 1293 943 1293 982.765 1260.76 1015 1221 1015 1181.24 1015 1149 982.765 1149 943Z" fill-rule="evenodd"/><path d="M1221.5 1127.5 1221.5 1287.63" stroke="#000000" stroke-width="114.583" stroke-linecap="round" stroke-miterlimit="8" fill="none" fill-rule="evenodd"/></g></svg>