<svg width="1076" height="1076" xmlns="http://www.w3.org/2000/svg" xmlns:xlink="http://www.w3.org/1999/xlink" xml:space="preserve" overflow="hidden"><g transform="translate(-356 -528)"><path d="M356 707.337C356 608.292 436.292 528 535.337 528L1252.66 528C1351.71 528 1432 608.292 1432 707.337L1432 1424.66C1432 1523.71 1351.71 1604 1252.66 1604L535.337 1604C436.292 1604 356 1523.71 356 1424.66Z" fill="#495366" fill-rule="evenodd"/><path d="M577 1016.04C577 981.222 605.222 953 640.036 953L1142.96 953C1177.78 953 1206 981.222 1206 1016.04L1206 1391.96C1206 1426.78 1177.78 1455 1142.96 1455L640.036 1455C605.222 1455 577 1426.78 577 1391.96Z" fill="#FF8A75" fill-rule="evenodd"/><path d="M676 882.5C676 764.035 772.035 668 890.5 668 1008.97 668 1105 764.035 1105 882.5 1105 1000.96 1008.97 1097 890.5 1097 772.035 1097 676 1000.96 676 882.5Z" fill="#FF8A75" fill-rule="evenodd"/><rect x="676" y="880" width="429" height="176" fill="#FF8A75"/><rect x="776" y="881" width="235" height="70.9998" fill="#495366"/><path d="M776 888.5C776 823.607 828.83 771 894 771 959.17 771 1012 823.607 1012 888.5 1012 953.394 959.17 1006 894 1006 828.83 1006 776 953.394 776 888.5Z" fill="#495366" fill-rule="evenodd"/><rect x="776" y="953" width="235" height="53.0003" fill="#FF8A75"/><rect x="865" y="1175" width="57.0001" height="144" fill="#495366"/><path d="M824 1168C824 1129.34 855.34 1098 894 1098 932.66 1098 964 1129.34 964 1168 964 1206.66 932.66 1238 894 1238 855.34 1238 824 1206.66 824 1168Z" fill="#495366" fill-rule="evenodd"/></g></svg>