<svg width="1076" height="1077" xmlns="http://www.w3.org/2000/svg" xmlns:xlink="http://www.w3.org/1999/xlink" xml:space="preserve" overflow="hidden"><defs><clipPath id="clip0"><rect x="2514" y="640" width="1076" height="1077"/></clipPath></defs><g clip-path="url(#clip0)" transform="translate(-2514 -640)"><path d="M2514 819.337C2514 720.292 2594.29 640 2693.34 640L3410.66 640C3509.71 640 3590 720.292 3590 819.337L3590 1536.66C3590 1635.71 3509.71 1716 3410.66 1716L2693.34 1716C2594.29 1716 2514 1635.71 2514 1536.66Z" fill="#495366" fill-rule="evenodd"/><path d="M2903 1155 3052 830 3201 1155Z" stroke="#FFCC32" stroke-width="91.6667" stroke-linecap="round" stroke-linejoin="round" stroke-miterlimit="10" fill="#FFCC32" fill-rule="evenodd"/><path d="M3027.55 1028.79 3383.19 1070.26 3119.85 1312.84Z" stroke="#FFCC32" stroke-width="91.6667" stroke-linecap="round" stroke-linejoin="round" stroke-miterlimit="10" fill="#FFCC32" fill-rule="evenodd"/><path d="M3186.2 1108.64 3256.66 1459.68 2944.57 1284.19Z" stroke="#FFCC32" stroke-width="91.6667" stroke-linecap="round" stroke-linejoin="round" stroke-miterlimit="10" fill="#FFCC32" fill-rule="evenodd"/><path d="M2984.01 1312.84 2720.67 1070.26 3076.3 1028.79Z" stroke="#FFCC32" stroke-width="91.6667" stroke-linecap="round" stroke-linejoin="round" stroke-miterlimit="10" fill="#FFCC32" fill-rule="evenodd"/><path d="M3159.28 1284.19 2847.2 1459.68 2917.66 1108.64Z" stroke="#FFCC32" stroke-width="91.6667" stroke-linecap="round" stroke-linejoin="round" stroke-miterlimit="10" fill="#FFCC32" fill-rule="evenodd"/></g></svg>