<svg width="1169" height="1170" xmlns="http://www.w3.org/2000/svg" xmlns:xlink="http://www.w3.org/1999/xlink" xml:space="preserve" overflow="hidden"><g transform="translate(-2422 -653)"><path d="M2422 847.837C2422 740.232 2509.23 653 2616.84 653L3396.16 653C3503.77 653 3591 740.232 3591 847.837L3591 1627.16C3591 1734.77 3503.77 1822 3396.16 1822L2616.84 1822C2509.23 1822 2422 1734.77 2422 1627.16Z" fill="#DFDAD0" fill-rule="evenodd"/><path d="M2468 879.17C2468 780.217 2548.22 700 2647.17 700L3364.83 700C3463.78 700 3544 780.217 3544 879.17L3544 1595.83C3544 1694.78 3463.78 1775 3364.83 1775L2647.17 1775C2548.22 1775 2468 1694.78 2468 1595.83Z" fill="#F3EFEA" fill-rule="evenodd"/><path d="M2690 1188.04C2690 1153.22 2718.22 1125 2753.04 1125L3255.96 1125C3290.78 1125 3319 1153.22 3319 1188.04L3319 1563.96C3319 1598.78 3290.78 1627 3255.96 1627L2753.04 1627C2718.22 1627 2690 1598.78 2690 1563.96Z" fill="#9EA1A8" fill-rule="evenodd"/><path d="M2790 1021.5C2790 903.035 2886.03 807 3004.5 807 3122.96 807 3219 903.035 3219 1021.5 3219 1139.97 3122.96 1236 3004.5 1236 2886.03 1236 2790 1139.97 2790 1021.5Z" fill="#9EA1A8" fill-rule="evenodd"/><rect x="2789" y="1023" width="96.0002" height="204" fill="#9EA1A8"/><path d="M2885 1022.5C2885 957.607 2937.61 905 3002.5 905 3067.39 905 3120 957.607 3120 1022.5 3120 1087.39 3067.39 1140 3002.5 1140 2937.61 1140 2885 1087.39 2885 1022.5Z" fill="#F3EFEA" fill-rule="evenodd"/><rect x="2885" y="1023" width="239" height="101" fill="#F3EFEA"/><rect x="2889" y="1124" width="235" height="54" fill="#9EA1A8"/><rect x="2978" y="1347" width="57" height="143" fill="#F3EFEA"/><path d="M2936 1340C2936 1301.34 2967.34 1270 3006 1270 3044.66 1270 3076 1301.34 3076 1340 3076 1378.66 3044.66 1410 3006 1410 2967.34 1410 2936 1378.66 2936 1340Z" fill="#F3EFEA" fill-rule="evenodd"/><rect x="3110" y="1023" width="109" height="101" fill="#F3EFEA"/></g></svg>